<?xml version="1.0"?>
<svg width="20" height="20" xmlns="http://www.w3.org/2000/svg" xmlns:svg="http://www.w3.org/2000/svg" preserveAspectRatio="xMidYMid meet">
 <metadata>Created by potrace 1.15, written by Peter Selinger 2001-2017</metadata>
 <g class="layer">
  <title>Layer 1</title>
  <g fill="#000000" id="svg_1" transform="translate(0 1181) scale(0.1 -0.1)">
   <path d="m6327,11292c-60,-180 -161,-489 -227,-687c-65,-198 -233,-709 -373,-1135c-141,-426 -367,-1114 -503,-1527l-248,-753l-2358,0c-1297,0 -2358,-3 -2358,-7c0,-5 170,-130 378,-279c207,-149 1057,-758 1887,-1353c831,-596 1518,-1091 1528,-1100c20,-19 55,94 -420,-1346c-187,-570 -344,-1047 -628,-1910c-141,-429 -286,-869 -322,-978c-36,-109 -63,-201 -60,-204c7,-6 -236,-180 1912,1362c1012,726 1855,1331 1872,1343l33,23l762,-548c2447,-1758 3053,-2191 3056,-2188c2,2 -46,153 -106,337c-61,183 -216,655 -346,1048c-511,1556 -712,2168 -811,2470c-145,440 -185,563 -185,575c0,6 855,623 1900,1373c1045,750 1900,1368 1900,1373c0,5 -909,10 -2357,11l-2356,3l-164,500c-90,275 -272,826 -403,1225c-131,399 -383,1166 -560,1705c-177,539 -325,983 -329,987c-4,5 -55,-139 -114,-320z" fill="#e2e21b" id="svg_2"/>
  </g>
 </g>
</svg>